<svg width="508" height="351" viewBox="0 0 508 351" fill="none" xmlns="http://www.w3.org/2000/svg">
<path d="M22.777 320.676L14.763 264.554L15.539 263.773C23.169 256.099 40.916 236.285 40.916 218.069C40.916 207.732 35.326 198.734 29.409 189.207C22.018 177.328 14.376 165.049 14.376 147.296C14.376 126.555 24.847 101.631 41.702 82.2483C61.352 59.6593 87.189 47.2193 114.454 47.2193C147.214 47.2193 185.848 55.3313 219.932 62.4893L220.217 62.5493C248.786 68.5653 273.458 73.7603 291.387 73.7603C293.571 73.7603 300.217 73.7603 328.18 55.8733C338.654 49.1763 349.409 41.6123 357.687 35.1183L359.879 33.3983L361.056 35.9233C363.553 41.2763 366.079 44.7073 366.104 44.7413C367.263 46.3193 369.053 47.2193 371.017 47.2193C372.315 47.2193 373.557 46.8123 374.611 46.0423C377.309 44.0543 377.893 40.2373 375.905 37.5393C375.135 36.4393 368.781 27.0583 368.267 16.6743L368.14 14.1143L370.691 14.3643C376.444 14.9273 388.485 20.7113 392.463 26.7763C393.593 28.5033 395.498 29.5333 397.561 29.5333C398.74 29.5333 399.888 29.1893 400.879 28.5393C401.659 28.0233 402.291 27.3613 402.753 26.5783L403.348 25.5693L404.516 25.4943C406.813 25.3453 409.169 25.2703 411.52 25.2703C450.409 25.2703 485.868 45.7593 495.81 52.0393C496.962 52.7673 495.81 52.118 495.81 53.5L471.5 68.6083C471.5 75.9783 477.614 100.675 433.676 100.675C409.002 100.675 401.314 96.2093 392.401 89.3943C391.329 88.5733 390.054 88.1403 388.711 88.1403C386.797 88.1403 385.031 89.0113 383.867 90.5303C382.884 91.8183 382.458 93.4173 382.672 95.0293C382.885 96.6383 383.713 98.0673 385.001 99.0503C390.236 103.051 396.151 107.175 405.751 109.8L408.499 110.551L407.09 113.027C369.24 179.547 328.144 197.194 320.289 200.056C309.774 203.867 302.32 213.261 300.835 224.573C297.786 247.697 294.152 279.15 294.152 297.691C294.152 307.711 296.208 316.462 300.262 323.703L302.105 326.995H298.188C291.661 326.995 285.987 322.604 284.388 316.316C279.887 298.658 272.153 265.816 270.921 244.273C270.88 243.621 270.734 242.973 270.489 242.358L252.796 198.125C251.872 195.797 249.657 194.297 247.151 194.297C246.377 194.297 245.616 194.444 244.89 194.735C241.783 195.981 240.265 199.529 241.511 202.642L251.104 226.643L248.887 227.388C238.599 230.846 224.074 232.527 204.483 232.527C188.279 232.527 170.98 231.364 157.078 230.428C147.448 229.778 138.352 229.163 130.705 228.962L126.425 228.849L128.997 225.425C132.277 221.051 135.148 216.561 137.526 212.08C138.286 210.647 138.442 209.001 137.963 207.449C137.484 205.895 136.43 204.62 134.994 203.858C134.104 203.386 133.147 203.147 132.149 203.147C129.889 203.147 127.829 204.386 126.771 206.378C109.37 239.218 70.165 258.96 51.322 268.448C40.619 273.839 38.079 275.264 37.631 279.344C35.539 298.382 35.959 314.356 38.879 326.823L40.156 332.276L22.777 320.676ZM415.24 43.9013C411.886 43.9013 409.158 46.6293 409.158 49.9833C409.158 53.3373 411.886 56.0653 415.24 56.0653H424.087C427.441 56.0653 430.169 53.3373 430.169 49.9833C430.169 46.6293 427.441 43.9013 424.087 43.9013H415.24Z" fill="#CEB290"/>
<path d="M472 58.2773L495.413 85.3693C495.413 89.6493 480.318 98.4623 433.674 98.4623C409.689 98.4623 402.29 94.1713 393.742 87.6363C390.104 84.8493 384.895 85.5463 382.109 89.1843C379.333 92.8223 380.019 98.0313 383.657 100.806C389.518 105.285 395.578 109.31 405.165 111.931C367.733 177.717 327.48 195.078 319.529 197.976C308.238 202.068 300.232 212.153 298.64 224.284C295.577 247.518 291.939 279.111 291.939 297.689C291.939 309.51 294.715 318.324 298.331 324.782H298.187C292.669 324.782 287.881 321.077 286.532 315.769C282.042 298.153 274.346 265.409 273.129 244.144C273.074 243.248 272.875 242.364 272.543 241.534L254.85 197.301C253.158 193.044 248.326 190.976 244.068 192.679C239.822 194.382 237.754 199.203 239.457 203.461L248.182 225.29C225.811 232.81 186.488 230.189 157.227 228.22C147.241 227.545 138.306 226.948 130.764 226.749C133.982 222.458 136.923 217.924 139.478 213.114C141.623 209.067 140.075 204.046 136.028 201.901C131.981 199.756 126.96 201.293 124.815 205.34C107.752 237.542 68.971 257.082 50.326 266.47C39.633 271.855 36.028 273.669 35.43 279.099C32.986 301.337 34.247 316.753 36.724 327.324L24.825 319.384L17.106 265.331C24.902 257.491 43.126 237.154 43.126 218.068C43.126 207.098 37.376 197.842 31.283 188.034C24.051 176.412 16.586 164.391 16.586 147.295C16.586 127.069 26.848 102.697 43.369 83.6993C62.588 61.6053 87.834 49.4293 114.452 49.4293C147.074 49.4293 185.69 57.5573 219.76 64.7123C248.49 70.7613 273.304 75.9693 291.385 75.9693C293.973 75.9693 300.862 75.9693 329.37 57.7343C340.163 50.8343 350.945 43.2143 359.051 36.8563C361.572 42.2643 364.105 45.7583 364.326 46.0573C365.952 48.2693 368.462 49.4303 371.016 49.4303C372.719 49.4303 374.433 48.9103 375.915 47.8273C379.608 45.1073 380.405 39.9203 377.684 36.2273C377.618 36.1273 370.983 26.8383 370.474 16.5653C375.671 17.0743 387.05 22.5593 390.611 27.9883C393.121 31.8253 398.263 32.8983 402.09 30.3883C403.174 29.6693 404.036 28.7513 404.656 27.7013C445.34 25.0693 460.832 42.9283 472 49.9833C458.874 49.9833 472 57.6693 472 58.2773ZM432.38 49.9833C432.38 45.4053 428.664 41.6893 424.086 41.6893H415.239C410.661 41.6893 406.945 45.4053 406.945 49.9833C406.945 54.5723 410.661 58.2773 415.239 58.2773H424.086C428.665 58.2773 432.38 54.5723 432.38 49.9833Z" fill="#CEB290"/>
<path d="M484 68.6083L512 85.3693C512 105.064 485.648 115.05 433.674 115.05C429.649 115.05 425.977 114.917 422.616 114.685C407.289 142.762 389.541 166.206 369.801 184.386C349.553 203.03 333.154 210.672 325.192 213.558C319.74 215.537 315.87 220.481 315.085 226.441C312.641 245.063 308.527 279.079 308.527 297.69C308.527 319.563 320.99 325.369 321.111 325.424C324.76 326.95 326.839 330.832 326.054 334.713C325.28 338.583 321.885 341.37 317.926 341.37H298.187C285.083 341.37 273.671 332.534 270.453 319.862C264.913 298.099 258.09 267.921 256.652 246.457L254.352 240.718C240.75 245.462 223.057 246.933 204.556 246.933C188.278 246.933 171.392 245.794 156.121 244.777C138.981 243.627 122.791 242.543 116.101 243.892C115.747 243.969 115.393 244.014 115.039 244.036C95.112 262.47 71.458 274.402 57.79 281.28C55.612 282.386 53.245 283.569 51.564 284.476C48.656 315.34 53.908 328.897 56.607 333.63H61.373C65.951 333.63 69.667 337.346 69.667 341.924C69.667 346.513 65.951 350.218 61.373 350.218H43.68C42.043 350.218 40.44 349.743 39.08 348.825L12.54 331.132C10.572 329.827 9.267 327.748 8.935 325.415L0.088 263.488C-0.299 260.768 0.674 258.047 2.687 256.201C11.91 247.719 26.54 229.871 26.54 218.072C26.54 211.835 22.205 204.868 17.196 196.796C9.532 184.463 0 169.125 0 147.296C0 100.63 44.587 32.8423 114.454 32.8423C148.801 32.8423 188.312 41.1583 223.168 48.4783C249.763 54.0743 274.877 59.3483 291.232 59.3823C298.608 58.3433 336.56 34.6893 354.076 19.5393C353.899 17.8583 353.822 16.1333 353.866 14.3863C354.043 7.59632 357.924 2.47633 364.239 0.685325C372.146 -1.55967 381.744 2.22232 386.754 4.67732C389.087 5.82732 393.566 8.22732 397.768 11.6773C444.324 6.30332 495.611 39.0573 512 49.4303C517.318 52.7923 484 62.2943 484 68.6083ZM495.413 85.3703L472 68.6083C472 68.0003 495.137 54.2303 494.628 53.9093C483.459 46.8543 445.341 25.0693 404.658 27.7013C404.039 28.7523 403.176 29.6693 402.092 30.3883C398.266 32.8983 393.124 31.8263 390.613 27.9883C387.052 22.5583 375.673 17.0733 370.476 16.5653C370.985 26.8383 377.62 36.1273 377.686 36.2273C380.406 39.9203 379.61 45.1073 375.917 47.8273C374.435 48.9113 372.721 49.4303 371.018 49.4303C368.464 49.4303 365.953 48.2693 364.328 46.0573C364.107 45.7583 361.574 42.2643 359.053 36.8563C350.947 43.2153 340.165 50.8343 329.372 57.7343C300.864 75.9693 293.974 75.9693 291.387 75.9693C273.307 75.9693 248.492 70.7613 219.762 64.7123C185.691 57.5573 147.076 49.4293 114.454 49.4293C87.837 49.4293 62.591 61.6043 43.371 83.6993C26.85 102.697 16.588 127.07 16.588 147.295C16.588 164.391 24.052 176.412 31.285 188.034C37.378 197.843 43.128 207.099 43.128 218.068C43.128 237.155 24.904 257.491 17.108 265.331L24.827 319.384L36.726 327.324C34.249 316.752 32.988 301.337 35.432 279.099C36.029 273.669 39.634 271.856 50.328 266.47C68.972 257.082 107.754 237.541 124.817 205.34C126.962 201.293 131.983 199.756 136.03 201.901C140.077 204.046 141.626 209.067 139.48 213.114C136.926 217.924 133.984 222.458 130.766 226.749C138.308 226.948 147.243 227.545 157.229 228.22C186.489 230.188 225.813 232.809 248.184 225.29L239.459 203.461C237.756 199.204 239.824 194.382 244.07 192.679C248.327 190.976 253.16 193.044 254.852 197.301L272.545 241.534C272.877 242.363 273.076 243.248 273.131 244.144C274.347 265.409 282.044 298.153 286.534 315.769C287.883 321.077 292.671 324.782 298.189 324.782H298.333C294.717 318.324 291.941 309.51 291.941 297.689C291.941 279.111 295.579 247.517 298.642 224.284C300.234 212.153 308.241 202.068 319.531 197.976C327.482 195.079 367.734 177.717 405.167 111.931C395.579 109.31 389.519 105.285 383.659 100.806C380.021 98.0303 379.335 92.8223 382.111 89.1843C384.898 85.5463 390.106 84.8493 393.744 87.6363C402.292 94.1713 409.69 98.4623 433.676 98.4623C480.318 98.4633 495.413 89.6493 495.413 85.3703Z" fill="#3D484A"/>
<path d="M424.086 41.6893C428.664 41.6893 432.38 45.4053 432.38 49.9833C432.38 54.5723 428.664 58.2773 424.086 58.2773H415.239C410.661 58.2773 406.945 54.5723 406.945 49.9833C406.945 45.4053 410.661 41.6893 415.239 41.6893H424.086Z" fill="#3D484A"/>
</svg>
