<svg width="474" height="203" viewBox="0 0 474 203" fill="none" xmlns="http://www.w3.org/2000/svg">
<path d="M222 52.5V14C222 6.26801 215.732 0 208 0C200.268 0 194 6.26801 194 14V67V143C194 151.284 187.284 158 179 158H15C6.71573 158 0 164.716 0 173V188C0 196.284 6.71574 203 15 203H459C467.284 203 474 196.284 474 188V173C474 164.716 467.284 158 459 158H294C285.716 158 279 151.284 279 143V67V14C279 6.26801 272.732 0 265 0C257.268 0 251 6.26801 251 14V52.5C251 60.5081 244.508 67 236.5 67C228.492 67 222 60.5081 222 52.5Z" fill="black"/>
<path d="M208 10.5C208 10.5 208 36 208 83.5C208 131 266 132.5 266 83.5C266 34.5 266 10.5 266 10.5" stroke="white" stroke-width="9" stroke-linecap="round"/>
</svg>
